<?xml version="1.0" standalone="no"?><!-- Generator: Gravit.io --><svg xmlns="http://www.w3.org/2000/svg" xmlns:xlink="http://www.w3.org/1999/xlink" style="isolation:isolate" viewBox="0 0 606.783 313.596" width="606.783" height="313.596"><defs><clipPath id="_clipPath_bryCGr8QwpfmlM6sgrXl6iphfHhge9I3"><rect width="606.783" height="313.596"/></clipPath></defs><g clip-path="url(#_clipPath_bryCGr8QwpfmlM6sgrXl6iphfHhge9I3)"><rect x="0" y="2.694" width="161.575" height="310.903" transform="matrix(1,0,0,1,0,0)" fill="rgb(235,235,235)"/><rect x="18.364" y="62.535" width="123.675" height="155.865" transform="matrix(1,0,0,1,0,0)" fill="rgb(209,209,209)"/><rect x="445.209" y="0" width="161.575" height="310.903" transform="matrix(1,0,0,1,0,0)" fill="rgb(235,235,235)"/><rect x="464.158" y="62.535" width="123.675" height="155.865" transform="matrix(1,0,0,1,0,0)" fill="rgb(209,209,209)"/><rect x="211.986" y="2.694" width="181.417" height="310.903" transform="matrix(1,0,0,1,0,0)" fill="rgb(235,235,235)"/><g transform="matrix(1,0,0,1,49.252,16.869)"><text transform="matrix(1,0,0,1,0.15,20.22)" style="font-family:&quot;Nunito Sans&quot;;font-weight:300;font-size:20px;font-style:normal;fill:#9900ff;stroke:none;">Client</text></g><g transform="matrix(1,0,0,1,30.595,153.059)"><text transform="matrix(1,0,0,1,20.844,17.102)" style="font-family:&quot;Open Sans&quot;;font-weight:700;font-size:16px;font-style:normal;fill:#009688;stroke:none;">Epigoni</text><text transform="matrix(1,0,0,1,0.426,38.891)" style="font-family:&quot;Open Sans&quot;;font-weight:700;font-size:16px;font-style:normal;fill:#009688;stroke:none;">Applications</text></g><path d=" M 105.797 285.84 C 105.797 287.356 104.572 288.581 103.056 288.581 L 86.417 288.581 C 84.902 288.581 83.677 287.356 83.677 285.84 L 83.677 242.879 C 83.677 241.706 84.639 240.745 85.811 240.745 L 103.662 240.745 C 104.835 240.745 105.797 241.706 105.797 242.879 L 105.797 248.241 L 107.878 248.241 L 107.878 242.879 C 107.878 240.547 105.981 238.663 103.662 238.663 L 85.811 238.663 C 83.479 238.663 81.595 240.56 81.595 242.879 L 81.595 285.854 C 81.595 288.515 83.756 290.675 86.417 290.675 L 103.056 290.675 C 105.718 290.675 107.878 288.515 107.878 285.854 L 107.878 283.206 L 105.797 283.206 L 105.797 285.84 L 105.797 285.84 Z  M 137.995 248.781 L 100.329 248.781 C 98.09 248.781 96.272 250.599 96.272 252.839 L 96.272 278.436 C 96.272 280.676 98.09 282.494 100.329 282.494 L 118.115 282.494 L 118.115 288.278 L 109.169 288.278 L 109.169 290.359 L 129.142 290.359 L 129.142 288.278 L 120.196 288.278 L 120.196 282.494 L 137.982 282.494 C 140.221 282.494 142.039 280.676 142.039 278.436 L 142.039 252.839 C 142.053 250.599 140.235 248.781 137.995 248.781 L 137.995 248.781 Z  M 139.971 278.436 C 139.971 279.53 139.088 280.413 137.995 280.413 L 100.329 280.413 C 99.236 280.413 98.353 279.53 98.353 278.436 L 98.353 252.839 C 98.353 251.745 99.236 250.863 100.329 250.863 L 137.995 250.863 C 139.088 250.863 139.971 251.745 139.971 252.839 L 139.971 278.436 L 139.971 278.436 Z  M 99.881 276.829 L 138.443 276.829 L 138.443 254.011 L 99.881 254.011 L 99.881 276.829 Z  M 100.922 255.052 L 137.402 255.052 L 137.402 275.802 L 100.922 275.802 L 100.922 255.052 Z  M 119.169 253.695 C 119.88 253.695 120.46 253.115 120.46 252.404 C 120.46 251.693 119.88 251.113 119.169 251.113 C 118.457 251.113 117.878 251.693 117.878 252.404 C 117.878 253.115 118.457 253.695 119.169 253.695 Z  M 119.169 252.167 C 119.3 252.167 119.419 252.272 119.419 252.417 C 119.419 252.562 119.314 252.667 119.169 252.667 C 119.024 252.667 118.918 252.562 118.918 252.417 C 118.918 252.272 119.024 252.167 119.169 252.167 Z  M 119.169 277.238 C 118.365 277.238 117.706 277.896 117.706 278.7 C 117.706 279.504 118.365 280.162 119.169 280.162 C 119.972 280.162 120.631 279.504 120.631 278.7 C 120.618 277.883 119.972 277.238 119.169 277.238 Z  M 119.169 279.108 C 118.932 279.108 118.747 278.924 118.747 278.687 C 118.747 278.45 118.932 278.265 119.169 278.265 C 119.406 278.265 119.59 278.45 119.59 278.687 C 119.59 278.924 119.393 279.108 119.169 279.108 Z  M 93.321 284.628 C 93.321 285.432 93.979 286.091 94.783 286.091 C 95.587 286.091 96.245 285.432 96.245 284.628 C 96.245 283.825 95.587 283.166 94.783 283.166 C 93.966 283.179 93.321 283.825 93.321 284.628 Z  M 95.191 284.628 C 95.191 284.866 95.007 285.05 94.77 285.05 C 94.533 285.05 94.348 284.866 94.348 284.628 C 94.348 284.391 94.533 284.207 94.77 284.207 C 95.007 284.207 95.191 284.404 95.191 284.628 Z  M 102.688 248.096 L 102.688 244.96 L 86.417 244.96 L 86.417 251.073 L 95.639 251.073 L 95.639 250.033 L 87.458 250.033 L 87.458 246.001 L 101.647 246.001 L 101.647 248.096 L 102.688 248.096 L 102.688 248.096 Z " fill="rgb(0,0,0)"/><path d=" M 66.016 258.016 L 28.113 258.016 C 27.929 258.016 27.784 258.161 27.784 258.346 L 27.784 282.903 C 27.784 283.087 27.929 283.232 28.113 283.232 L 66.029 283.232 C 66.214 283.232 66.358 283.087 66.358 282.903 L 66.358 258.346 C 66.345 258.174 66.2 258.016 66.016 258.016 Z  M 65.687 282.573 L 28.443 282.573 L 28.443 258.675 L 65.687 258.675 L 65.687 282.573 Z  M 74.922 284.536 L 70.627 284.536 L 70.627 255.895 C 70.627 255.434 70.258 255.065 69.797 255.065 L 24.319 255.065 C 23.858 255.065 23.489 255.434 23.489 255.895 L 23.489 284.536 L 19.194 284.536 C 18.733 284.536 18.364 284.905 18.364 285.366 L 18.364 289.845 C 18.364 290.307 18.733 290.675 19.194 290.675 L 74.922 290.675 C 75.383 290.675 75.752 290.307 75.752 289.845 L 75.752 285.366 C 75.752 284.905 75.383 284.536 74.922 284.536 L 74.922 284.536 Z  M 25.136 256.725 L 68.98 256.725 L 68.98 284.549 L 25.136 284.549 L 25.136 256.725 Z  M 74.105 289.016 L 20.024 289.016 L 20.024 286.183 L 74.105 286.183 L 74.105 289.016 Z  M 66.293 286.947 L 65.384 286.947 C 65.265 286.947 65.186 287.039 65.186 287.145 L 65.186 288.054 C 65.186 288.172 65.278 288.251 65.384 288.251 L 66.293 288.251 C 66.411 288.251 66.49 288.159 66.49 288.054 L 66.49 287.145 C 66.49 287.039 66.398 286.947 66.293 286.947 Z  M 69.613 286.947 L 68.703 286.947 C 68.585 286.947 68.506 287.039 68.506 287.145 L 68.506 288.054 C 68.506 288.172 68.598 288.251 68.703 288.251 L 69.613 288.251 C 69.731 288.251 69.81 288.159 69.81 288.054 L 69.81 287.145 C 69.81 287.039 69.718 286.947 69.613 286.947 Z  M 62.999 286.947 L 52.539 286.947 C 52.42 286.947 52.341 287.039 52.341 287.145 L 52.341 288.054 C 52.341 288.172 52.433 288.251 52.539 288.251 L 62.999 288.251 C 63.118 288.251 63.197 288.159 63.197 288.054 L 63.197 287.145 C 63.197 287.039 63.104 286.947 62.999 286.947 L 62.999 286.947 Z " fill="rgb(60,53,51)"/><g transform="matrix(1,0,0,1,452.23,16.869)"><text transform="matrix(1,0,0,1,13.876,20.22)" style="font-family:&quot;Nunito Sans&quot;;font-weight:300;font-size:20px;font-style:normal;fill:#9900ff;stroke:none;">Development</text></g><path d=" M 550.197 285.84 C 550.197 287.356 548.972 288.581 547.457 288.581 L 530.818 288.581 C 529.303 288.581 528.078 287.356 528.078 285.84 L 528.078 242.879 C 528.078 241.706 529.039 240.745 530.212 240.745 L 548.063 240.745 C 549.236 240.745 550.197 241.706 550.197 242.879 L 550.197 248.241 L 552.279 248.241 L 552.279 242.879 C 552.279 240.547 550.382 238.663 548.063 238.663 L 530.212 238.663 C 527.88 238.663 525.996 240.56 525.996 242.879 L 525.996 285.854 C 525.996 288.515 528.157 290.675 530.818 290.675 L 547.457 290.675 C 550.118 290.675 552.279 288.515 552.279 285.854 L 552.279 283.206 L 550.197 283.206 L 550.197 285.84 L 550.197 285.84 Z  M 582.396 248.781 L 544.73 248.781 C 542.49 248.781 540.672 250.599 540.672 252.839 L 540.672 278.436 C 540.672 280.676 542.49 282.494 544.73 282.494 L 562.515 282.494 L 562.515 288.278 L 553.57 288.278 L 553.57 290.359 L 573.542 290.359 L 573.542 288.278 L 564.597 288.278 L 564.597 282.494 L 582.382 282.494 C 584.622 282.494 586.44 280.676 586.44 278.436 L 586.44 252.839 C 586.453 250.599 584.635 248.781 582.396 248.781 L 582.396 248.781 Z  M 584.372 278.436 C 584.372 279.53 583.489 280.413 582.396 280.413 L 544.73 280.413 C 543.637 280.413 542.754 279.53 542.754 278.436 L 542.754 252.839 C 542.754 251.745 543.637 250.863 544.73 250.863 L 582.396 250.863 C 583.489 250.863 584.372 251.745 584.372 252.839 L 584.372 278.436 L 584.372 278.436 Z  M 544.282 276.829 L 582.843 276.829 L 582.843 254.011 L 544.282 254.011 L 544.282 276.829 Z  M 545.323 255.052 L 581.803 255.052 L 581.803 275.802 L 545.323 275.802 L 545.323 255.052 Z  M 563.569 253.695 C 564.281 253.695 564.86 253.115 564.86 252.404 C 564.86 251.693 564.281 251.113 563.569 251.113 C 562.858 251.113 562.278 251.693 562.278 252.404 C 562.278 253.115 562.858 253.695 563.569 253.695 Z  M 563.569 252.167 C 563.701 252.167 563.82 252.272 563.82 252.417 C 563.82 252.562 563.714 252.667 563.569 252.667 C 563.424 252.667 563.319 252.562 563.319 252.417 C 563.319 252.272 563.424 252.167 563.569 252.167 Z  M 563.569 277.238 C 562.766 277.238 562.107 277.896 562.107 278.7 C 562.107 279.504 562.766 280.162 563.569 280.162 C 564.373 280.162 565.032 279.504 565.032 278.7 C 565.019 277.883 564.373 277.238 563.569 277.238 Z  M 563.569 279.108 C 563.332 279.108 563.148 278.924 563.148 278.687 C 563.148 278.45 563.332 278.265 563.569 278.265 C 563.806 278.265 563.991 278.45 563.991 278.687 C 563.991 278.924 563.793 279.108 563.569 279.108 Z  M 537.721 284.628 C 537.721 285.432 538.38 286.091 539.184 286.091 C 539.987 286.091 540.646 285.432 540.646 284.628 C 540.646 283.825 539.987 283.166 539.184 283.166 C 538.367 283.179 537.721 283.825 537.721 284.628 Z  M 539.592 284.628 C 539.592 284.866 539.408 285.05 539.17 285.05 C 538.933 285.05 538.749 284.866 538.749 284.628 C 538.749 284.391 538.933 284.207 539.17 284.207 C 539.408 284.207 539.592 284.404 539.592 284.628 Z  M 547.088 248.096 L 547.088 244.96 L 530.818 244.96 L 530.818 251.073 L 540.04 251.073 L 540.04 250.033 L 531.859 250.033 L 531.859 246.001 L 546.047 246.001 L 546.047 248.096 L 547.088 248.096 L 547.088 248.096 Z " fill="rgb(0,0,0)"/><path d=" M 510.417 258.016 L 472.514 258.016 C 472.329 258.016 472.185 258.161 472.185 258.346 L 472.185 282.903 C 472.185 283.087 472.329 283.232 472.514 283.232 L 510.43 283.232 C 510.614 283.232 510.759 283.087 510.759 282.903 L 510.759 258.346 C 510.746 258.174 510.601 258.016 510.417 258.016 Z  M 510.087 282.573 L 472.843 282.573 L 472.843 258.675 L 510.087 258.675 L 510.087 282.573 Z  M 519.322 284.536 L 515.028 284.536 L 515.028 255.895 C 515.028 255.434 514.659 255.065 514.198 255.065 L 468.72 255.065 C 468.259 255.065 467.89 255.434 467.89 255.895 L 467.89 284.536 L 463.595 284.536 C 463.134 284.536 462.765 284.905 462.765 285.366 L 462.765 289.845 C 462.765 290.307 463.134 290.675 463.595 290.675 L 519.322 290.675 C 519.784 290.675 520.152 290.307 520.152 289.845 L 520.152 285.366 C 520.152 284.905 519.784 284.536 519.322 284.536 L 519.322 284.536 Z  M 469.536 256.725 L 513.381 256.725 L 513.381 284.549 L 469.536 284.549 L 469.536 256.725 Z  M 518.506 289.016 L 464.425 289.016 L 464.425 286.183 L 518.506 286.183 L 518.506 289.016 Z  M 510.693 286.947 L 509.784 286.947 C 509.666 286.947 509.587 287.039 509.587 287.145 L 509.587 288.054 C 509.587 288.172 509.679 288.251 509.784 288.251 L 510.693 288.251 C 510.812 288.251 510.891 288.159 510.891 288.054 L 510.891 287.145 C 510.891 287.039 510.799 286.947 510.693 286.947 Z  M 514.013 286.947 L 513.104 286.947 C 512.986 286.947 512.907 287.039 512.907 287.145 L 512.907 288.054 C 512.907 288.172 512.999 288.251 513.104 288.251 L 514.013 288.251 C 514.132 288.251 514.211 288.159 514.211 288.054 L 514.211 287.145 C 514.211 287.039 514.119 286.947 514.013 286.947 Z  M 507.4 286.947 L 496.939 286.947 C 496.821 286.947 496.742 287.039 496.742 287.145 L 496.742 288.054 C 496.742 288.172 496.834 288.251 496.939 288.251 L 507.4 288.251 C 507.518 288.251 507.597 288.159 507.597 288.054 L 507.597 287.145 C 507.597 287.039 507.505 286.947 507.4 286.947 L 507.4 286.947 Z " fill="rgb(60,53,51)"/><path d=" M 302.699 167.005 C 294.226 167.005 286.534 168.524 280.841 171.086 C 277.998 172.364 275.652 173.913 273.947 175.73 C 272.241 177.545 271.18 179.699 271.18 182.015 L 271.18 196.743 C 271.168 196.837 271.168 196.931 271.18 197.024 L 271.18 211.753 C 271.168 211.846 271.168 211.94 271.18 212.033 L 271.18 225.542 C 271.18 227.858 272.241 230.01 273.947 231.828 C 275.652 233.644 277.998 235.193 280.841 236.47 C 286.534 239.032 294.226 240.551 302.699 240.551 C 311.172 240.551 318.864 239.032 324.558 236.47 C 327.4 235.193 329.746 233.644 331.451 231.828 C 333.158 230.01 334.219 227.856 334.219 225.542 L 334.219 182.015 C 334.219 179.699 333.158 177.546 331.451 175.729 C 329.746 173.913 327.4 172.364 324.558 171.086 C 318.864 168.524 311.172 167.005 302.699 167.005 Z  M 302.699 170.007 C 310.807 170.007 318.119 171.526 323.291 173.854 C 325.875 175.014 327.917 176.376 329.247 177.794 C 330.579 179.212 331.217 180.601 331.217 182.015 C 331.217 183.427 330.578 184.817 329.247 186.237 C 327.917 187.655 325.875 189.015 323.291 190.175 C 318.119 192.503 310.807 194.022 302.699 194.022 C 294.591 194.022 287.28 192.503 282.108 190.175 C 279.523 189.015 277.482 187.654 276.151 186.237 C 274.821 184.817 274.181 183.426 274.181 182.015 C 274.181 180.602 274.821 179.212 276.152 177.792 C 277.482 176.374 279.523 175.014 282.108 173.852 C 287.28 171.528 294.591 170.007 302.699 170.007 Z  M 274.181 188.535 C 275.864 190.252 278.115 191.717 280.843 192.943 C 286.534 195.505 294.226 197.024 302.699 197.024 C 311.172 197.024 318.864 195.505 324.558 192.943 C 327.283 191.718 329.535 190.252 331.217 188.535 L 331.217 197.024 C 331.217 198.436 330.578 199.826 329.247 201.246 C 327.917 202.665 325.875 204.024 323.291 205.186 C 318.119 207.513 310.807 209.032 302.699 209.032 C 294.591 209.032 287.28 207.513 282.108 205.185 C 279.523 204.024 277.482 202.663 276.151 201.245 C 274.821 199.826 274.181 198.438 274.181 197.024 C 274.193 196.93 274.193 196.836 274.181 196.742 L 274.181 188.535 Z  M 274.181 203.544 C 275.864 205.261 278.115 206.726 280.843 207.952 C 286.534 210.515 294.226 212.033 302.699 212.033 C 311.172 212.033 318.864 210.515 324.558 207.952 C 327.283 206.728 329.535 205.261 331.217 203.544 L 331.217 212.033 C 331.217 213.446 330.578 214.836 329.247 216.256 C 327.917 217.674 325.875 219.034 323.291 220.194 C 318.119 222.524 310.807 224.041 302.699 224.041 C 294.591 224.041 287.28 222.522 282.108 220.194 C 279.523 219.034 277.482 217.673 276.151 216.256 C 274.821 214.834 274.181 213.444 274.181 212.033 C 274.193 211.94 274.193 211.845 274.181 211.751 L 274.181 203.544 Z  M 274.181 218.554 C 275.864 220.271 278.115 221.736 280.843 222.962 C 286.534 225.524 294.226 227.043 302.699 227.043 C 311.172 227.043 318.864 225.524 324.558 222.962 C 327.283 221.737 329.535 220.271 331.217 218.554 L 331.217 225.542 C 331.217 226.954 330.578 228.344 329.247 229.764 C 327.917 231.183 325.875 232.542 323.291 233.703 C 318.119 236.032 310.807 237.55 302.699 237.55 C 294.591 237.55 287.28 236.031 282.108 233.703 C 279.523 232.542 277.482 231.181 276.151 229.764 C 274.821 228.344 274.181 226.953 274.181 225.542 L 274.181 218.554 Z " fill="rgb(255,153,0)"/><g transform="matrix(1,0,0,1,273.195,16.869)"><text transform="matrix(1,0,0,1,0.04,20.22)" style="font-family:&quot;Nunito Sans&quot;;font-weight:300;font-size:20px;font-style:normal;fill:#9900ff;stroke:none;">Server</text></g><line x1="142.039" y1="99.074" x2="262.398" y2="99.542" vector-effect="non-scaling-stroke" stroke-width="2" stroke="rgb(0,150,136)" stroke-linejoin="miter" stroke-linecap="square" stroke-miterlimit="3"/><path d=" M 256.405 106.59 L 270.575 99.574 L 256.46 92.448 Z " fill="rgb(0,150,136)" stroke="none"/><line x1="142.039" y1="186.237" x2="262.398" y2="186.237" vector-effect="non-scaling-stroke" stroke-width="2" stroke="rgb(0,0,0)" stroke-linejoin="miter" stroke-linecap="square" stroke-miterlimit="3"/><path d=" M 255.978 193.308 L 270.12 186.237 L 255.978 179.166 Z " fill="rgb(0,0,0)" stroke="none"/><line x1="342.992" y1="99.542" x2="464.425" y2="100.716" vector-effect="non-scaling-stroke" stroke-width="2" stroke="rgb(0,0,0)" stroke-linejoin="miter" stroke-linecap="square" stroke-miterlimit="3"/><path d=" M 348.874 92.528 L 334.664 99.462 L 348.737 106.669 Z " fill="rgb(0,0,0)" stroke="none"/><line x1="342.992" y1="186.237" x2="462.765" y2="186.237" vector-effect="non-scaling-stroke" stroke-width="2" stroke="rgb(0,0,0)" stroke-linejoin="miter" stroke-linecap="square" stroke-miterlimit="3"/><path d=" M 348.958 179.166 L 334.815 186.237 L 348.958 193.308 Z " fill="rgb(0,0,0)" stroke="none"/><path d=" M 302.699 57.449 C 294.226 57.449 286.534 58.967 280.841 61.53 C 277.998 62.807 275.652 64.356 273.947 66.174 C 272.241 67.988 271.18 70.142 271.18 72.458 L 271.18 87.187 C 271.168 87.28 271.168 87.374 271.18 87.467 L 271.18 102.196 C 271.168 102.289 271.168 102.384 271.18 102.477 L 271.18 115.985 C 271.18 118.301 272.241 120.454 273.947 122.271 C 275.652 124.087 277.998 125.636 280.841 126.914 C 286.534 129.476 294.226 130.995 302.699 130.995 C 311.172 130.995 318.864 129.476 324.558 126.914 C 327.4 125.636 329.746 124.087 331.451 122.271 C 333.158 120.454 334.219 118.3 334.219 115.985 L 334.219 72.458 C 334.219 70.142 333.158 67.99 331.451 66.172 C 329.746 64.356 327.4 62.807 324.558 61.53 C 318.864 58.967 311.172 57.449 302.699 57.449 Z  M 302.699 60.45 C 310.807 60.45 318.119 61.969 323.291 64.297 C 325.875 65.458 327.917 66.819 329.247 68.237 C 330.579 69.656 331.217 71.044 331.217 72.458 C 331.217 73.87 330.578 75.26 329.247 76.68 C 327.917 78.098 325.875 79.458 323.291 80.619 C 318.119 82.947 310.807 84.465 302.699 84.465 C 294.591 84.465 287.28 82.947 282.108 80.619 C 279.523 79.458 277.482 78.097 276.151 76.68 C 274.821 75.26 274.181 73.869 274.181 72.458 C 274.181 71.046 274.821 69.656 276.152 68.236 C 277.482 66.817 279.523 65.458 282.108 64.296 C 287.28 61.971 294.591 60.45 302.699 60.45 Z  M 274.181 78.978 C 275.864 80.695 278.115 82.16 280.843 83.386 C 286.534 85.948 294.226 87.467 302.699 87.467 C 311.172 87.467 318.864 85.948 324.558 83.386 C 327.283 82.162 329.535 80.695 331.217 78.978 L 331.217 87.467 C 331.217 88.88 330.578 90.27 329.247 91.69 C 327.917 93.108 325.875 94.468 323.291 95.63 C 318.119 97.956 310.807 99.475 302.699 99.475 C 294.591 99.475 287.28 97.956 282.108 95.628 C 279.523 94.468 277.482 93.106 276.151 91.688 C 274.821 90.27 274.181 88.881 274.181 87.467 C 274.193 87.374 274.193 87.279 274.181 87.185 L 274.181 78.978 Z  M 274.181 93.987 C 275.864 95.705 278.115 97.169 280.843 98.396 C 286.534 100.958 294.226 102.477 302.699 102.477 C 311.172 102.477 318.864 100.958 324.558 98.396 C 327.283 97.171 329.535 95.705 331.217 93.987 L 331.217 102.477 C 331.217 103.889 330.578 105.279 329.247 106.699 C 327.917 108.117 325.875 109.477 323.291 110.637 C 318.119 112.967 310.807 114.484 302.699 114.484 C 294.591 114.484 287.28 112.965 282.108 110.637 C 279.523 109.477 277.482 108.116 276.151 106.699 C 274.821 105.278 274.181 103.888 274.181 102.477 C 274.193 102.383 274.193 102.288 274.181 102.195 L 274.181 93.987 Z  M 274.181 108.997 C 275.864 110.714 278.115 112.179 280.843 113.405 C 286.534 115.967 294.226 117.486 302.699 117.486 C 311.172 117.486 318.864 115.967 324.558 113.405 C 327.283 112.18 329.535 110.714 331.217 108.997 L 331.217 115.985 C 331.217 117.398 330.578 118.788 329.247 120.207 C 327.917 121.626 325.875 122.986 323.291 124.146 C 318.119 126.475 310.807 127.993 302.699 127.993 C 294.591 127.993 287.28 126.474 282.108 124.146 C 279.523 122.986 277.482 121.624 276.151 120.207 C 274.821 118.788 274.181 117.396 274.181 115.985 L 274.181 108.997 Z " fill="rgb(255,153,0)"/><g transform="matrix(1,0,0,1,268.195,247.827)"><text transform="matrix(1,0,0,1,0.18,13.174)" style="font-family:&quot;Actor&quot;;font-weight:400;font-size:14px;font-style:normal;fill:#000000;stroke:none;">DB Aplikasi</text></g><g transform="matrix(1,0,0,1,42.287,296.754)"><text transform="matrix(1,0,0,1,0.057,13.174)" style="font-family:&quot;Actor&quot;;font-weight:400;font-size:14px;font-style:normal;fill:#000000;stroke:none;">Workstation</text></g><g transform="matrix(1,0,0,1,254.695,136.217)"><text transform="matrix(1,0,0,1,0.331,13.174)" style="font-family:&quot;Actor&quot;;font-weight:400;font-size:14px;font-style:normal;fill:#000000;stroke:none;">Definisi Aplikasi</text></g><g transform="matrix(1,0,0,1,486.102,296.754)"><text transform="matrix(1,0,0,1,0.057,13.174)" style="font-family:&quot;Actor&quot;;font-weight:400;font-size:14px;font-style:normal;fill:#000000;stroke:none;">Workstation</text></g><g><path d=" M 64.373 100.834 L 72.58 100.834 L 72.58 92.627 L 64.373 92.627 L 64.373 100.834 Z  M 76.684 125.455 L 84.891 125.455 L 84.891 117.248 L 76.684 117.248 L 76.684 125.455 Z  M 64.373 125.455 L 72.58 125.455 L 72.58 117.248 L 64.373 117.248 L 64.373 125.455 Z  M 64.373 113.145 L 72.58 113.145 L 72.58 104.937 L 64.373 104.937 L 64.373 113.145 Z  M 76.684 113.145 L 84.891 113.145 L 84.891 104.937 L 76.684 104.937 L 76.684 113.145 Z  M 88.994 92.627 L 88.994 100.834 L 97.202 100.834 L 97.202 92.627 L 88.994 92.627 Z  M 76.684 100.834 L 84.891 100.834 L 84.891 92.627 L 76.684 92.627 L 76.684 100.834 Z  M 88.994 113.145 L 97.202 113.145 L 97.202 104.937 L 88.994 104.937 L 88.994 113.145 Z  M 88.994 125.455 L 97.202 125.455 L 97.202 117.248 L 88.994 117.248 L 88.994 125.455 Z " fill="rgb(0,0,0)"/><path d=" M 56.166 84.42 L 105.409 84.42 L 105.409 133.662 L 56.166 133.662 L 56.166 84.42 Z " fill="none"/></g><g transform="matrix(1,0,0,1,495.496,153.059)"><text transform="matrix(1,0,0,1,0.344,17.102)" style="font-family:&quot;Open Sans&quot;;font-weight:700;font-size:16px;font-style:normal;fill:#009688;stroke:none;">Epigoni</text><text transform="matrix(1,0,0,1,3.906,38.891)" style="font-family:&quot;Open Sans&quot;;font-weight:700;font-size:16px;font-style:normal;fill:#009688;stroke:none;">Studio</text></g><g><path d=" M 509.582 100.834 L 517.789 100.834 L 517.789 92.627 L 509.582 92.627 L 509.582 100.834 Z  M 521.893 125.455 L 530.1 125.455 L 530.1 117.248 L 521.893 117.248 L 521.893 125.455 Z  M 509.582 125.455 L 517.789 125.455 L 517.789 117.248 L 509.582 117.248 L 509.582 125.455 Z  M 509.582 113.145 L 517.789 113.145 L 517.789 104.937 L 509.582 104.937 L 509.582 113.145 Z  M 521.893 113.145 L 530.1 113.145 L 530.1 104.937 L 521.893 104.937 L 521.893 113.145 Z  M 534.203 92.627 L 534.203 100.834 L 542.41 100.834 L 542.41 92.627 L 534.203 92.627 Z  M 521.893 100.834 L 530.1 100.834 L 530.1 92.627 L 521.893 92.627 L 521.893 100.834 Z  M 534.203 113.145 L 542.41 113.145 L 542.41 104.937 L 534.203 104.937 L 534.203 113.145 Z  M 534.203 125.455 L 542.41 125.455 L 542.41 117.248 L 534.203 117.248 L 534.203 125.455 Z " fill="rgb(0,0,0)"/><path d=" M 501.375 84.42 L 550.617 84.42 L 550.617 133.662 L 501.375 133.662 L 501.375 84.42 Z " fill="none"/></g></g></svg>