<?xml version="1.0" standalone="no"?><!-- Generator: Gravit.io --><svg xmlns="http://www.w3.org/2000/svg" xmlns:xlink="http://www.w3.org/1999/xlink" style="isolation:isolate" viewBox="0 0 448.403 232.833" width="448.403" height="232.833"><defs><clipPath id="_clipPath_YCX8cDxQWU0cTlGNPfaslX15cj1QPRJ9"><rect width="448.403" height="232.833"/></clipPath></defs><g clip-path="url(#_clipPath_YCX8cDxQWU0cTlGNPfaslX15cj1QPRJ9)"><rect x="0.633" y="0" width="261.077" height="232.833" transform="matrix(1,0,0,1,0,0)" fill="rgb(235,235,235)"/><rect x="30" y="39.333" width="198.667" height="177.333" transform="matrix(1,0,0,1,0,0)" fill="rgb(0,255,255)"/><rect x="34" y="77.485" width="94.672" height="135.386" transform="matrix(1,0,0,1,0,0)" fill="rgb(209,209,209)"/><rect x="287.848" y="0" width="160.555" height="232.833" transform="matrix(1,0,0,1,0,0)" fill="rgb(235,235,235)"/><line x1="229.667" y1="109.052" x2="329.144" y2="109.052" vector-effect="non-scaling-stroke" stroke-width="2" stroke="rgb(0,0,0)" stroke-linejoin="miter" stroke-linecap="square" stroke-miterlimit="3"/><path d=" M 322.724 116.123 L 336.866 109.052 L 322.724 101.981 Z " fill="rgb(0,0,0)" stroke="none"/><g transform="matrix(1,0,0,1,102.48,5.916)"><text transform="matrix(1,0,0,1,0.15,20.22)" style="font-family:&quot;Nunito Sans&quot;;font-weight:300;font-size:20px;font-style:normal;fill:#9900ff;stroke:none;">Client</text></g><g transform="matrix(1,0,0,1,51.836,149.242)"><text transform="matrix(1,0,0,1,0.672,17.102)" style="font-family:&quot;Open Sans&quot;;font-weight:400;font-size:16px;font-style:normal;fill:#009688;stroke:none;">Definisi</text><text transform="matrix(1,0,0,1,0,38.891)" style="font-family:&quot;Open Sans&quot;;font-weight:400;font-size:16px;font-style:normal;fill:#009688;stroke:none;">Aplikasi</text></g><rect x="34" y="43.836" width="189.96" height="30.257" transform="matrix(1,0,0,1,0,0)" fill="rgb(209,209,209)"/><g transform="matrix(1,0,0,1,101.672,47.304)"><text transform="matrix(1,0,0,1,0,17.102)" style="font-family:&quot;Open Sans&quot;;font-weight:400;font-size:16px;font-style:normal;fill:#009688;stroke:none;">Aplikasi</text></g><rect x="132.628" y="77.485" width="91.332" height="135.386" transform="matrix(1,0,0,1,0,0)" fill="rgb(209,209,209)"/><g transform="matrix(1,0,0,1,144.294,149.242)"><text transform="matrix(1,0,0,1,5.477,17.102)" style="font-family:&quot;Open Sans&quot;;font-weight:400;font-size:16px;font-style:normal;fill:#009688;stroke:none;">Epigoni</text><text transform="matrix(1,0,0,1,0.23,38.891)" style="font-family:&quot;Open Sans&quot;;font-weight:400;font-size:16px;font-style:normal;fill:#009688;stroke:none;">Executor</text></g><path d=" M 368.129 80.452 C 360.983 80.452 354.495 81.733 349.694 83.894 C 347.296 84.971 345.318 86.277 343.88 87.81 C 342.44 89.341 341.545 91.157 341.545 93.111 L 341.545 105.533 C 341.535 105.612 341.535 105.691 341.545 105.77 L 341.545 118.192 C 341.535 118.27 341.535 118.35 341.545 118.429 L 341.545 129.822 C 341.545 131.775 342.44 133.59 343.88 135.123 C 345.318 136.655 347.296 137.961 349.694 139.039 C 354.495 141.199 360.983 142.48 368.129 142.48 C 375.275 142.48 381.763 141.199 386.564 139.039 C 388.962 137.961 390.94 136.655 392.378 135.123 C 393.818 133.59 394.713 131.774 394.713 129.822 L 394.713 93.111 C 394.713 91.157 393.818 89.342 392.378 87.809 C 390.94 86.277 388.962 84.971 386.564 83.894 C 381.763 81.733 375.275 80.452 368.129 80.452 Z  M 368.129 82.984 C 374.967 82.984 381.134 84.265 385.496 86.228 C 387.676 87.207 389.397 88.355 390.519 89.551 C 391.643 90.747 392.181 91.918 392.181 93.111 C 392.181 94.302 391.642 95.474 390.519 96.672 C 389.397 97.868 387.676 99.015 385.496 99.993 C 381.134 101.957 374.967 103.238 368.129 103.238 C 361.291 103.238 355.125 101.957 350.762 99.993 C 348.582 99.015 346.861 97.867 345.738 96.672 C 344.616 95.474 344.077 94.301 344.077 93.111 C 344.077 91.92 344.616 90.747 345.739 89.55 C 346.861 88.354 348.582 87.207 350.762 86.227 C 355.125 84.266 361.291 82.984 368.129 82.984 Z  M 344.077 98.61 C 345.496 100.058 347.395 101.293 349.695 102.328 C 354.495 104.489 360.983 105.77 368.129 105.77 C 375.275 105.77 381.763 104.489 386.564 102.328 C 388.863 101.295 390.762 100.058 392.181 98.61 L 392.181 105.77 C 392.181 106.961 391.642 108.133 390.519 109.331 C 389.397 110.527 387.676 111.674 385.496 112.654 C 381.134 114.616 374.967 115.897 368.129 115.897 C 361.291 115.897 355.125 114.616 350.762 112.652 C 348.582 111.674 346.861 110.526 345.738 109.329 C 344.616 108.133 344.077 106.962 344.077 105.77 C 344.087 105.691 344.087 105.611 344.077 105.532 L 344.077 98.61 Z  M 344.077 111.269 C 345.496 112.717 347.395 113.952 349.695 114.987 C 354.495 117.147 360.983 118.429 368.129 118.429 C 375.275 118.429 381.763 117.147 386.564 114.987 C 388.863 113.954 390.762 112.717 392.181 111.269 L 392.181 118.429 C 392.181 119.62 391.642 120.792 390.519 121.99 C 389.397 123.186 387.676 124.333 385.496 125.311 C 381.134 127.276 374.967 128.556 368.129 128.556 C 361.291 128.556 355.125 127.275 350.762 125.311 C 348.582 124.333 346.861 123.185 345.738 121.99 C 344.616 120.791 344.077 119.619 344.077 118.429 C 344.087 118.35 344.087 118.27 344.077 118.191 L 344.077 111.269 Z  M 344.077 123.928 C 345.496 125.376 347.395 126.611 349.695 127.646 C 354.495 129.806 360.983 131.087 368.129 131.087 C 375.275 131.087 381.763 129.806 386.564 127.646 C 388.863 126.613 390.762 125.376 392.181 123.928 L 392.181 129.822 C 392.181 131.013 391.642 132.185 390.519 133.383 C 389.397 134.579 387.676 135.726 385.496 136.704 C 381.134 138.669 374.967 139.949 368.129 139.949 C 361.291 139.949 355.125 138.668 350.762 136.704 C 348.582 135.726 346.861 134.578 345.738 133.383 C 344.616 132.185 344.077 131.012 344.077 129.822 L 344.077 123.928 Z " fill="rgb(255,153,0)"/><g transform="matrix(1,0,0,1,338.625,7.295)"><text transform="matrix(1,0,0,1,0.04,20.22)" style="font-family:&quot;Nunito Sans&quot;;font-weight:300;font-size:20px;font-style:normal;fill:#9900ff;stroke:none;">Server</text></g><g transform="matrix(1,0,0,1,334.68,145.531)"><text transform="matrix(1,0,0,1,0.18,13.174)" style="font-family:&quot;Actor&quot;;font-weight:400;font-size:14px;font-style:normal;fill:#000000;stroke:none;">DB Aplikasi</text></g><path d=" M 64.922 100.845 L 73.129 100.845 L 73.129 92.638 L 64.922 92.638 L 64.922 100.845 Z  M 77.232 125.466 L 85.44 125.466 L 85.44 117.259 L 77.232 117.259 L 77.232 125.466 Z  M 64.922 125.466 L 73.129 125.466 L 73.129 117.259 L 64.922 117.259 L 64.922 125.466 Z  M 64.922 113.155 L 73.129 113.155 L 73.129 104.948 L 64.922 104.948 L 64.922 113.155 Z  M 77.232 113.155 L 85.44 113.155 L 85.44 104.948 L 77.232 104.948 L 77.232 113.155 Z  M 89.543 92.638 L 89.543 100.845 L 97.75 100.845 L 97.75 92.638 L 89.543 92.638 Z  M 77.232 100.845 L 85.44 100.845 L 85.44 92.638 L 77.232 92.638 L 77.232 100.845 Z  M 89.543 113.155 L 97.75 113.155 L 97.75 104.948 L 89.543 104.948 L 89.543 113.155 Z  M 89.543 125.466 L 97.75 125.466 L 97.75 117.259 L 89.543 117.259 L 89.543 125.466 Z " fill="rgb(0,0,0)"/><path d=" M 56.715 84.431 L 105.957 84.431 L 105.957 133.673 L 56.715 133.673 L 56.715 84.431 Z " fill="none"/><path d=" M 163.002 89.512 L 163.002 128.592 L 193.586 128.592 L 193.586 100.908 L 182.04 89.512 L 163.002 89.512 Z  M 164.701 91.211 L 180.842 91.211 L 180.842 102.255 L 191.887 102.255 L 191.887 126.892 L 164.701 126.892 L 164.701 91.211 Z  M 182.541 92.392 L 190.811 100.556 L 182.541 100.556 L 182.541 92.392 Z  M 175.726 107.829 L 177.268 112.019 L 175.663 116.417 L 177.318 116.417 L 177.776 114.864 C 177.905 114.379 178.045 113.854 178.184 113.307 L 178.21 113.307 C 178.363 113.854 178.503 114.34 178.669 114.837 L 179.22 116.417 L 180.936 116.417 L 179.243 112.092 L 180.848 107.828 L 179.18 107.828 L 178.745 109.394 C 178.632 109.863 178.513 110.33 178.386 110.795 L 178.363 110.795 C 178.224 110.311 178.108 109.866 177.968 109.421 L 177.47 107.829 L 175.726 107.829 Z  M 171.418 107.829 L 171.418 116.417 L 175.307 116.417 L 175.307 114.963 L 173.09 114.963 L 173.09 112.644 L 175.052 112.644 L 175.052 111.256 L 173.09 111.256 L 173.09 109.279 L 175.151 109.279 L 175.151 107.829 L 171.418 107.829 Z  M 181.626 107.829 L 181.626 116.417 L 185.515 116.417 L 185.515 114.963 L 183.298 114.963 L 183.298 112.644 L 185.26 112.644 L 185.26 111.256 L 183.298 111.256 L 183.298 109.279 L 185.359 109.279 L 185.359 107.829 L 181.626 107.829 Z " fill="rgb(0,0,0)"/></g></svg>