<?xml version="1.0" standalone="no"?><!-- Generator: Gravit.io --><svg xmlns="http://www.w3.org/2000/svg" xmlns:xlink="http://www.w3.org/1999/xlink" style="isolation:isolate" viewBox="0 0 473.092 232.833" width="473.092" height="232.833"><defs><clipPath id="_clipPath_0wQ4luzBbc6AREAI9rVH1XKrAn5Plt08"><rect width="473.092" height="232.833"/></clipPath></defs><g clip-path="url(#_clipPath_0wQ4luzBbc6AREAI9rVH1XKrAn5Plt08)"><rect x="0" y="0" width="267.357" height="232.833" transform="matrix(1,0,0,1,0,0)" fill="rgb(235,235,235)"/><rect x="18.689" y="47.912" width="94.672" height="152.698" transform="matrix(1,0,0,1,0,0)" fill="rgb(209,209,209)"/><rect x="312.537" y="0" width="160.555" height="232.833" transform="matrix(1,0,0,1,0,0)" fill="rgb(235,235,235)"/><g transform="matrix(1,0,0,1,107.178,7.295)"><text transform="matrix(1,0,0,1,0.15,20.22)" style="font-family:&quot;Nunito Sans&quot;;font-weight:300;font-size:20px;font-style:normal;fill:#9900ff;stroke:none;">Client</text></g><g transform="matrix(1,0,0,1,36.525,136.981)"><text transform="matrix(1,0,0,1,0.672,17.102)" style="font-family:&quot;Open Sans&quot;;font-weight:400;font-size:16px;font-style:normal;fill:#009688;stroke:none;">Definisi</text><text transform="matrix(1,0,0,1,0,38.891)" style="font-family:&quot;Open Sans&quot;;font-weight:400;font-size:16px;font-style:normal;fill:#009688;stroke:none;">Aplikasi</text></g><rect x="151.317" y="47.912" width="91.332" height="152.698" transform="matrix(1,0,0,1,0,0)" fill="rgb(209,209,209)"/><g transform="matrix(1,0,0,1,162.983,136.981)"><text transform="matrix(1,0,0,1,5.477,17.102)" style="font-family:&quot;Open Sans&quot;;font-weight:400;font-size:16px;font-style:normal;fill:#009688;stroke:none;">Epigoni</text><text transform="matrix(1,0,0,1,0.23,38.891)" style="font-family:&quot;Open Sans&quot;;font-weight:400;font-size:16px;font-style:normal;fill:#009688;stroke:none;">Executor</text></g><path d=" M 392.818 42.215 C 385.673 42.215 379.185 43.496 374.383 45.656 C 371.986 46.734 370.007 48.04 368.569 49.573 C 367.13 51.104 366.235 52.92 366.235 54.873 L 366.235 67.296 C 366.225 67.374 366.225 67.454 366.235 67.532 L 366.235 79.955 C 366.225 80.033 366.225 80.113 366.235 80.191 L 366.235 91.584 C 366.235 93.538 367.13 95.353 368.569 96.886 C 370.007 98.418 371.986 99.724 374.383 100.801 C 379.185 102.962 385.673 104.243 392.818 104.243 C 399.964 104.243 406.452 102.962 411.254 100.801 C 413.651 99.724 415.63 98.418 417.068 96.886 C 418.507 95.353 419.402 93.536 419.402 91.584 L 419.402 54.873 C 419.402 52.92 418.507 51.105 417.068 49.572 C 415.63 48.04 413.651 46.734 411.254 45.656 C 406.452 43.496 399.964 42.215 392.818 42.215 Z  M 392.818 44.746 C 399.657 44.746 405.823 46.027 410.185 47.991 C 412.365 48.969 414.087 50.117 415.208 51.314 C 416.332 52.51 416.87 53.681 416.87 54.873 C 416.87 56.065 416.331 57.237 415.208 58.434 C 414.087 59.631 412.365 60.778 410.185 61.756 C 405.823 63.719 399.657 65.001 392.818 65.001 C 385.98 65.001 379.814 63.719 375.452 61.756 C 373.272 60.778 371.55 59.629 370.427 58.434 C 369.306 57.237 368.767 56.063 368.767 54.873 C 368.767 53.682 369.306 52.51 370.429 51.312 C 371.55 50.116 373.272 48.969 375.452 47.99 C 379.814 46.029 385.98 44.746 392.818 44.746 Z  M 368.767 60.372 C 370.186 61.821 372.084 63.056 374.385 64.09 C 379.185 66.251 385.673 67.532 392.818 67.532 C 399.964 67.532 406.452 66.251 411.254 64.09 C 413.553 63.057 415.451 61.821 416.87 60.372 L 416.87 67.532 C 416.87 68.724 416.331 69.896 415.208 71.093 C 414.087 72.29 412.365 73.436 410.185 74.416 C 405.823 76.378 399.657 77.659 392.818 77.659 C 385.98 77.659 379.814 76.378 375.452 74.415 C 373.272 73.436 371.55 72.288 370.427 71.092 C 369.306 69.896 368.767 68.725 368.767 67.532 C 368.777 67.453 368.777 67.373 368.767 67.294 L 368.767 60.372 Z  M 368.767 73.031 C 370.186 74.48 372.084 75.715 374.385 76.749 C 379.185 78.91 385.673 80.191 392.818 80.191 C 399.964 80.191 406.452 78.91 411.254 76.749 C 413.553 75.716 415.451 74.48 416.87 73.031 L 416.87 80.191 C 416.87 81.382 416.331 82.555 415.208 83.752 C 414.087 84.948 412.365 86.095 410.185 87.074 C 405.823 89.039 399.657 90.318 392.818 90.318 C 385.98 90.318 379.814 89.037 375.452 87.074 C 373.272 86.095 371.55 84.947 370.427 83.752 C 369.306 82.553 368.767 81.381 368.767 80.191 C 368.777 80.112 368.777 80.032 368.767 79.953 L 368.767 73.031 Z  M 368.767 85.69 C 370.186 87.138 372.084 88.374 374.385 89.408 C 379.185 91.569 385.673 92.85 392.818 92.85 C 399.964 92.85 406.452 91.569 411.254 89.408 C 413.553 88.375 415.451 87.138 416.87 85.69 L 416.87 91.584 C 416.87 92.775 416.331 93.948 415.208 95.145 C 414.087 96.342 412.365 97.488 410.185 98.467 C 405.823 100.432 399.657 101.711 392.818 101.711 C 385.98 101.711 379.814 100.43 375.452 98.467 C 373.272 97.488 371.55 96.34 370.427 95.145 C 369.306 93.948 368.767 92.774 368.767 91.584 L 368.767 85.69 Z " fill="rgb(255,153,0)"/><path d=" M 392.818 135.531 C 385.673 135.531 379.185 136.812 374.383 138.973 C 371.986 140.05 370.007 141.357 368.569 142.89 C 367.13 144.42 366.235 146.237 366.235 148.19 L 366.235 160.612 C 366.225 160.691 366.225 160.77 366.235 160.849 L 366.235 173.271 C 366.225 173.35 366.225 173.429 366.235 173.508 L 366.235 184.901 C 366.235 186.854 367.13 188.669 368.569 190.202 C 370.007 191.734 371.986 193.041 374.383 194.118 C 379.185 196.279 385.673 197.56 392.818 197.56 C 399.964 197.56 406.452 196.279 411.254 194.118 C 413.651 193.041 415.63 191.734 417.068 190.202 C 418.507 188.669 419.402 186.853 419.402 184.901 L 419.402 148.19 C 419.402 146.237 418.507 144.421 417.068 142.888 C 415.63 141.357 413.651 140.05 411.254 138.973 C 406.452 136.812 399.964 135.531 392.818 135.531 Z  M 392.818 138.063 C 399.657 138.063 405.823 139.344 410.185 141.307 C 412.365 142.286 414.087 143.434 415.208 144.63 C 416.332 145.827 416.87 146.998 416.87 148.19 C 416.87 149.381 416.331 150.553 415.208 151.751 C 414.087 152.947 412.365 154.094 410.185 155.073 C 405.823 157.036 399.657 158.317 392.818 158.317 C 385.98 158.317 379.814 157.036 375.452 155.073 C 373.272 154.094 371.55 152.946 370.427 151.751 C 369.306 150.553 368.767 149.38 368.767 148.19 C 368.767 146.999 369.306 145.827 370.429 144.629 C 371.55 143.433 373.272 142.286 375.452 141.306 C 379.814 139.345 385.98 138.063 392.818 138.063 Z  M 368.767 153.689 C 370.186 155.137 372.084 156.373 374.385 157.407 C 379.185 159.568 385.673 160.849 392.818 160.849 C 399.964 160.849 406.452 159.568 411.254 157.407 C 413.553 156.374 415.451 155.137 416.87 153.689 L 416.87 160.849 C 416.87 162.04 416.331 163.212 415.208 164.41 C 414.087 165.606 412.365 166.753 410.185 167.733 C 405.823 169.695 399.657 170.976 392.818 170.976 C 385.98 170.976 379.814 169.695 375.452 167.732 C 373.272 166.753 371.55 165.605 370.427 164.409 C 369.306 163.212 368.767 162.041 368.767 160.849 C 368.777 160.77 368.777 160.69 368.767 160.611 L 368.767 153.689 Z  M 368.767 166.348 C 370.186 167.796 372.084 169.032 374.385 170.066 C 379.185 172.227 385.673 173.508 392.818 173.508 C 399.964 173.508 406.452 172.227 411.254 170.066 C 413.553 169.033 415.451 167.796 416.87 166.348 L 416.87 173.508 C 416.87 174.699 416.331 175.871 415.208 177.069 C 414.087 178.265 412.365 179.412 410.185 180.391 C 405.823 182.355 399.657 183.635 392.818 183.635 C 385.98 183.635 379.814 182.354 375.452 180.391 C 373.272 179.412 371.55 178.264 370.427 177.069 C 369.306 175.87 368.767 174.698 368.767 173.508 C 368.777 173.429 368.777 173.349 368.767 173.27 L 368.767 166.348 Z  M 368.767 179.007 C 370.186 180.455 372.084 181.691 374.385 182.725 C 379.185 184.886 385.673 186.167 392.818 186.167 C 399.964 186.167 406.452 184.886 411.254 182.725 C 413.553 181.692 415.451 180.455 416.87 179.007 L 416.87 184.901 C 416.87 186.092 416.331 187.264 415.208 188.462 C 414.087 189.658 412.365 190.805 410.185 191.784 C 405.823 193.748 399.657 195.028 392.818 195.028 C 385.98 195.028 379.814 193.747 375.452 191.784 C 373.272 190.805 371.55 189.657 370.427 188.462 C 369.306 187.264 368.767 186.091 368.767 184.901 L 368.767 179.007 Z " fill="rgb(255,153,0)"/><g transform="matrix(1,0,0,1,363.315,7.295)"><text transform="matrix(1,0,0,1,0.04,20.22)" style="font-family:&quot;Nunito Sans&quot;;font-weight:300;font-size:20px;font-style:normal;fill:#9900ff;stroke:none;">Server</text></g><line x1="114.516" y1="116.417" x2="150.567" y2="116.417" vector-effect="non-scaling-stroke" stroke-width="2" stroke="rgb(0,0,0)" stroke-linejoin="miter" stroke-linecap="square" stroke-miterlimit="3"/><path d=" M 124.569 109.346 L 110.427 116.417 L 124.569 123.488 Z " fill="rgb(0,0,0)" stroke="none"/><line x1="242.649" y1="80.961" x2="347.833" y2="80.961" vector-effect="non-scaling-stroke" stroke-width="2" stroke="rgb(0,0,0)" stroke-linejoin="miter" stroke-linecap="square" stroke-miterlimit="3"/><path d=" M 341.414 88.032 L 355.556 80.961 L 341.414 73.89 Z " fill="rgb(0,0,0)" stroke="none"/><line x1="242.649" y1="167.562" x2="347.833" y2="167.562" vector-effect="non-scaling-stroke" stroke-width="2" stroke="rgb(0,0,0)" stroke-linejoin="miter" stroke-linecap="square" stroke-miterlimit="3"/><path d=" M 341.414 174.633 L 355.556 167.562 L 341.414 160.49 Z " fill="rgb(0,0,0)" stroke="none"/><g transform="matrix(1,0,0,1,359.37,200.61)"><text transform="matrix(1,0,0,1,0.18,13.174)" style="font-family:&quot;Actor&quot;;font-weight:400;font-size:14px;font-style:normal;fill:#000000;stroke:none;">DB Aplikasi</text></g><g transform="matrix(1,0,0,1,345.87,107.996)"><text transform="matrix(1,0,0,1,0.331,13.174)" style="font-family:&quot;Actor&quot;;font-weight:400;font-size:14px;font-style:normal;fill:#000000;stroke:none;">Definisi Aplikasi</text></g><g><path d=" M 49.611 88.584 L 57.818 88.584 L 57.818 80.377 L 49.611 80.377 L 49.611 88.584 Z  M 61.922 113.205 L 70.129 113.205 L 70.129 104.998 L 61.922 104.998 L 61.922 113.205 Z  M 49.611 113.205 L 57.818 113.205 L 57.818 104.998 L 49.611 104.998 L 49.611 113.205 Z  M 49.611 100.895 L 57.818 100.895 L 57.818 92.688 L 49.611 92.688 L 49.611 100.895 Z  M 61.922 100.895 L 70.129 100.895 L 70.129 92.688 L 61.922 92.688 L 61.922 100.895 Z  M 74.233 80.377 L 74.233 88.584 L 82.44 88.584 L 82.44 80.377 L 74.233 80.377 Z  M 61.922 88.584 L 70.129 88.584 L 70.129 80.377 L 61.922 80.377 L 61.922 88.584 Z  M 74.233 100.895 L 82.44 100.895 L 82.44 92.688 L 74.233 92.688 L 74.233 100.895 Z  M 74.233 113.205 L 82.44 113.205 L 82.44 104.998 L 74.233 104.998 L 74.233 113.205 Z " fill="rgb(0,0,0)"/><path d=" M 41.404 72.17 L 90.647 72.17 L 90.647 121.412 L 41.404 121.412 L 41.404 72.17 Z " fill="none"/></g><path d=" M 181.691 77.251 L 181.691 116.331 L 212.275 116.331 L 212.275 88.647 L 200.73 77.251 L 181.691 77.251 Z  M 183.39 78.95 L 199.532 78.95 L 199.532 89.995 L 210.576 89.995 L 210.576 114.632 L 183.39 114.632 L 183.39 78.95 Z  M 201.231 80.131 L 209.5 88.296 L 201.231 88.296 L 201.231 80.131 Z  M 194.415 95.568 L 195.958 99.759 L 194.352 104.156 L 196.008 104.156 L 196.466 102.603 C 196.595 102.119 196.734 101.594 196.874 101.046 L 196.9 101.046 C 197.053 101.594 197.192 102.079 197.359 102.576 L 197.909 104.156 L 199.625 104.156 L 197.932 99.832 L 199.538 95.567 L 197.869 95.567 L 197.434 97.133 C 197.322 97.602 197.202 98.069 197.076 98.534 L 197.053 98.534 C 196.914 98.05 196.798 97.605 196.658 97.161 L 196.16 95.568 L 194.415 95.568 Z  M 190.108 95.568 L 190.108 104.156 L 193.996 104.156 L 193.996 102.702 L 191.78 102.702 L 191.78 100.383 L 193.741 100.383 L 193.741 98.996 L 191.78 98.996 L 191.78 97.018 L 193.841 97.018 L 193.841 95.568 L 190.108 95.568 Z  M 200.315 95.568 L 200.315 104.156 L 204.204 104.156 L 204.204 102.702 L 201.987 102.702 L 201.987 100.383 L 203.95 100.383 L 203.95 98.996 L 201.987 98.996 L 201.987 97.018 L 204.048 97.018 L 204.048 95.568 L 200.315 95.568 Z " fill="rgb(0,0,0)"/></g></svg>