<?xml version="1.0" standalone="no"?><!-- Generator: Gravit.io --><svg xmlns="http://www.w3.org/2000/svg" xmlns:xlink="http://www.w3.org/1999/xlink" style="isolation:isolate" viewBox="0 0 473.092 232.833" width="473.092" height="232.833"><defs><clipPath id="_clipPath_vX5EhY49St6ZBhgwn8oiGX8dy7GjP8ij"><rect width="473.092" height="232.833"/></clipPath></defs><g clip-path="url(#_clipPath_vX5EhY49St6ZBhgwn8oiGX8dy7GjP8ij)"><rect x="0" y="0" width="267.357" height="232.833" transform="matrix(1,0,0,1,0,0)" fill="rgb(235,235,235)"/><rect x="18.689" y="47.912" width="94.672" height="152.698" transform="matrix(1,0,0,1,0,0)" fill="rgb(209,209,209)"/><rect x="312.537" y="0" width="160.555" height="232.833" transform="matrix(1,0,0,1,0,0)" fill="rgb(235,235,235)"/><g transform="matrix(1,0,0,1,107.178,7.295)"><text transform="matrix(1,0,0,1,0.15,20.22)" style="font-family:&quot;Nunito Sans&quot;;font-weight:300;font-size:20px;font-style:normal;fill:#9900ff;stroke:none;">Client</text></g><g transform="matrix(1,0,0,1,36.525,136.981)"><text transform="matrix(1,0,0,1,0.672,17.102)" style="font-family:&quot;Open Sans&quot;;font-weight:400;font-size:16px;font-style:normal;fill:#009688;stroke:none;">Definisi</text><text transform="matrix(1,0,0,1,0,38.891)" style="font-family:&quot;Open Sans&quot;;font-weight:400;font-size:16px;font-style:normal;fill:#009688;stroke:none;">Aplikasi</text></g><rect x="151.317" y="47.912" width="91.332" height="152.698" transform="matrix(1,0,0,1,0,0)" fill="rgb(209,209,209)"/><g transform="matrix(1,0,0,1,162.983,136.981)"><text transform="matrix(1,0,0,1,5.477,17.102)" style="font-family:&quot;Open Sans&quot;;font-weight:400;font-size:16px;font-style:normal;fill:#009688;stroke:none;">Epigoni</text><text transform="matrix(1,0,0,1,0.23,38.891)" style="font-family:&quot;Open Sans&quot;;font-weight:400;font-size:16px;font-style:normal;fill:#009688;stroke:none;">Executor</text></g><path d=" M 392.818 80.452 C 385.673 80.452 379.185 81.733 374.383 83.894 C 371.986 84.971 370.007 86.277 368.569 87.81 C 367.13 89.341 366.235 91.157 366.235 93.111 L 366.235 105.533 C 366.225 105.612 366.225 105.691 366.235 105.77 L 366.235 118.192 C 366.225 118.27 366.225 118.35 366.235 118.429 L 366.235 129.822 C 366.235 131.775 367.13 133.59 368.569 135.123 C 370.007 136.655 371.986 137.961 374.383 139.039 C 379.185 141.199 385.673 142.48 392.818 142.48 C 399.964 142.48 406.452 141.199 411.254 139.039 C 413.651 137.961 415.63 136.655 417.068 135.123 C 418.507 133.59 419.402 131.774 419.402 129.822 L 419.402 93.111 C 419.402 91.157 418.507 89.342 417.068 87.809 C 415.63 86.277 413.651 84.971 411.254 83.894 C 406.452 81.733 399.964 80.452 392.818 80.452 Z  M 392.818 82.984 C 399.657 82.984 405.823 84.265 410.185 86.228 C 412.365 87.207 414.087 88.355 415.208 89.551 C 416.332 90.747 416.87 91.918 416.87 93.111 C 416.87 94.302 416.331 95.474 415.208 96.672 C 414.087 97.868 412.365 99.015 410.185 99.993 C 405.823 101.957 399.657 103.238 392.818 103.238 C 385.98 103.238 379.814 101.957 375.452 99.993 C 373.272 99.015 371.55 97.867 370.427 96.672 C 369.306 95.474 368.767 94.301 368.767 93.111 C 368.767 91.92 369.306 90.747 370.429 89.55 C 371.55 88.354 373.272 87.207 375.452 86.227 C 379.814 84.266 385.98 82.984 392.818 82.984 Z  M 368.767 98.61 C 370.186 100.058 372.084 101.293 374.385 102.328 C 379.185 104.489 385.673 105.77 392.818 105.77 C 399.964 105.77 406.452 104.489 411.254 102.328 C 413.553 101.295 415.451 100.058 416.87 98.61 L 416.87 105.77 C 416.87 106.961 416.331 108.133 415.208 109.331 C 414.087 110.527 412.365 111.674 410.185 112.654 C 405.823 114.616 399.657 115.897 392.818 115.897 C 385.98 115.897 379.814 114.616 375.452 112.652 C 373.272 111.674 371.55 110.526 370.427 109.329 C 369.306 108.133 368.767 106.962 368.767 105.77 C 368.777 105.691 368.777 105.611 368.767 105.532 L 368.767 98.61 Z  M 368.767 111.269 C 370.186 112.717 372.084 113.952 374.385 114.987 C 379.185 117.147 385.673 118.429 392.818 118.429 C 399.964 118.429 406.452 117.147 411.254 114.987 C 413.553 113.954 415.451 112.717 416.87 111.269 L 416.87 118.429 C 416.87 119.62 416.331 120.792 415.208 121.99 C 414.087 123.186 412.365 124.333 410.185 125.311 C 405.823 127.276 399.657 128.556 392.818 128.556 C 385.98 128.556 379.814 127.275 375.452 125.311 C 373.272 124.333 371.55 123.185 370.427 121.99 C 369.306 120.791 368.767 119.619 368.767 118.429 C 368.777 118.35 368.777 118.27 368.767 118.191 L 368.767 111.269 Z  M 368.767 123.928 C 370.186 125.376 372.084 126.611 374.385 127.646 C 379.185 129.806 385.673 131.087 392.818 131.087 C 399.964 131.087 406.452 129.806 411.254 127.646 C 413.553 126.613 415.451 125.376 416.87 123.928 L 416.87 129.822 C 416.87 131.013 416.331 132.185 415.208 133.383 C 414.087 134.579 412.365 135.726 410.185 136.704 C 405.823 138.669 399.657 139.949 392.818 139.949 C 385.98 139.949 379.814 138.668 375.452 136.704 C 373.272 135.726 371.55 134.578 370.427 133.383 C 369.306 132.185 368.767 131.012 368.767 129.822 L 368.767 123.928 Z " fill="rgb(255,153,0)"/><g transform="matrix(1,0,0,1,363.315,7.295)"><text transform="matrix(1,0,0,1,0.04,20.22)" style="font-family:&quot;Nunito Sans&quot;;font-weight:300;font-size:20px;font-style:normal;fill:#9900ff;stroke:none;">Server</text></g><line x1="114.516" y1="116.417" x2="150.567" y2="116.417" vector-effect="non-scaling-stroke" stroke-width="2" stroke="rgb(0,0,0)" stroke-linejoin="miter" stroke-linecap="square" stroke-miterlimit="3"/><path d=" M 124.569 109.346 L 110.427 116.417 L 124.569 123.488 Z " fill="rgb(0,0,0)" stroke="none"/><line x1="242.649" y1="116.331" x2="347.833" y2="116.331" vector-effect="non-scaling-stroke" stroke-width="2" stroke="rgb(0,0,0)" stroke-linejoin="miter" stroke-linecap="square" stroke-miterlimit="3"/><path d=" M 341.414 123.402 L 355.556 116.331 L 341.414 109.26 Z " fill="rgb(0,0,0)" stroke="none"/><g transform="matrix(1,0,0,1,359.37,145.531)"><text transform="matrix(1,0,0,1,0.18,13.174)" style="font-family:&quot;Actor&quot;;font-weight:400;font-size:14px;font-style:normal;fill:#000000;stroke:none;">DB Aplikasi</text></g><g><path d=" M 49.611 88.584 L 57.818 88.584 L 57.818 80.377 L 49.611 80.377 L 49.611 88.584 Z  M 61.922 113.205 L 70.129 113.205 L 70.129 104.998 L 61.922 104.998 L 61.922 113.205 Z  M 49.611 113.205 L 57.818 113.205 L 57.818 104.998 L 49.611 104.998 L 49.611 113.205 Z  M 49.611 100.895 L 57.818 100.895 L 57.818 92.688 L 49.611 92.688 L 49.611 100.895 Z  M 61.922 100.895 L 70.129 100.895 L 70.129 92.688 L 61.922 92.688 L 61.922 100.895 Z  M 74.233 80.377 L 74.233 88.584 L 82.44 88.584 L 82.44 80.377 L 74.233 80.377 Z  M 61.922 88.584 L 70.129 88.584 L 70.129 80.377 L 61.922 80.377 L 61.922 88.584 Z  M 74.233 100.895 L 82.44 100.895 L 82.44 92.688 L 74.233 92.688 L 74.233 100.895 Z  M 74.233 113.205 L 82.44 113.205 L 82.44 104.998 L 74.233 104.998 L 74.233 113.205 Z " fill="rgb(0,0,0)"/><path d=" M 41.404 72.17 L 90.647 72.17 L 90.647 121.412 L 41.404 121.412 L 41.404 72.17 Z " fill="none"/></g><path d=" M 181.691 77.251 L 181.691 116.331 L 212.275 116.331 L 212.275 88.647 L 200.73 77.251 L 181.691 77.251 Z  M 183.39 78.95 L 199.532 78.95 L 199.532 89.995 L 210.576 89.995 L 210.576 114.632 L 183.39 114.632 L 183.39 78.95 Z  M 201.231 80.131 L 209.5 88.296 L 201.231 88.296 L 201.231 80.131 Z  M 194.415 95.568 L 195.958 99.759 L 194.352 104.156 L 196.008 104.156 L 196.466 102.603 C 196.595 102.119 196.734 101.594 196.874 101.046 L 196.9 101.046 C 197.053 101.594 197.192 102.079 197.359 102.576 L 197.909 104.156 L 199.625 104.156 L 197.932 99.832 L 199.538 95.567 L 197.869 95.567 L 197.434 97.133 C 197.322 97.602 197.202 98.069 197.076 98.534 L 197.053 98.534 C 196.914 98.05 196.798 97.605 196.658 97.161 L 196.16 95.568 L 194.415 95.568 Z  M 190.108 95.568 L 190.108 104.156 L 193.996 104.156 L 193.996 102.702 L 191.78 102.702 L 191.78 100.383 L 193.741 100.383 L 193.741 98.996 L 191.78 98.996 L 191.78 97.018 L 193.841 97.018 L 193.841 95.568 L 190.108 95.568 Z  M 200.315 95.568 L 200.315 104.156 L 204.204 104.156 L 204.204 102.702 L 201.987 102.702 L 201.987 100.383 L 203.95 100.383 L 203.95 98.996 L 201.987 98.996 L 201.987 97.018 L 204.048 97.018 L 204.048 95.568 L 200.315 95.568 Z " fill="rgb(0,0,0)"/></g></svg>